<svg width="179" height="43" viewBox="0 0 179 43" fill="none" xmlns="http://www.w3.org/2000/svg">
<g clip-path="url(#clip0_1_2167)">
<path fill-rule="evenodd" clip-rule="evenodd" d="M6.79607 42.338H42.3892C45.7355 38.856 47.9845 34.4672 48.8566 29.7173C49.7287 24.9674 49.1854 20.066 47.2943 15.6223C45.4031 11.1787 42.2476 7.38899 38.22 4.72431C34.1924 2.05963 29.4704 0.637555 24.6411 0.634908C19.8036 0.618488 15.0683 2.02678 11.0259 4.68409C6.98353 7.34141 3.81303 11.1301 1.90991 15.5776C0.00679562 20.0251 -0.544699 24.9345 0.324225 29.6934C1.19315 34.4523 3.44402 38.8501 6.79607 42.338ZM38.8008 21.9714C38.8008 14.8916 32.9818 8.39363 24.6411 8.39363C16.1065 8.39363 10.3845 14.8916 10.3845 21.9714C10.3845 24.7839 11.0634 27.2085 12.4211 30.312C20.8588 30.312 22.4105 35.9371 22.7984 39.7195L22.9924 42.338H26.1929L26.4838 39.7195C26.7748 35.9371 28.4235 30.312 36.7641 30.312C38.2189 27.2085 38.7038 24.7839 38.7038 21.9714H38.8008ZM71.2904 8.39363C63.3378 8.39363 57.3247 13.2428 57.4217 21.7774H64.7925C64.7925 18.383 66.8292 14.9885 71.2904 14.9885C74.6849 14.9885 76.8185 17.3162 76.8185 20.2257C76.8185 23.1352 74.4909 24.7839 70.7085 26.7236C66.4205 28.8342 61.9789 30.6173 57.4217 32.0577V41.7561H83.9953V35.1612H67.5081C70.0296 34.0944 72.4543 32.8336 74.7819 31.7668C80.7949 28.8573 84.2863 25.6568 84.2863 19.8377C84.2863 12.8549 79.0492 8.39363 71.2904 8.39363ZM95.8274 15.5704H111.151V8.78156H88.6506V41.7561H95.8274V15.5704ZM122.013 8.78156H114.739V41.7561H121.916L135.3 20.8076V41.8531H142.477V8.87855H135.3L121.916 29.9241V8.87855L122.013 8.78156ZM178.458 29.5361H170.99C170.412 31.3439 169.274 32.9204 167.739 34.0366C166.204 35.1529 164.353 35.7506 162.455 35.7431C156.539 35.7431 152.757 30.603 152.757 25.4628C152.757 20.2257 156.442 15.1825 162.649 15.1825C166.723 15.1825 169.923 17.7041 170.99 21.2925H178.458C177.391 13.8247 171.669 8.39363 162.455 8.39363C160.197 8.28259 157.941 8.64558 155.831 9.45923C153.722 10.2729 151.806 11.5192 150.207 13.1179C148.609 14.7166 147.362 16.6323 146.549 18.7418C145.735 20.8512 145.372 23.1076 145.483 25.3658C145.483 35.1612 152.272 42.338 162.455 42.338C171.572 42.338 177.391 36.9069 178.458 29.4392V29.5361Z" fill="#EBEBEB"/>
</g>
<defs>
<clipPath id="clip0_1_2167">
<rect width="178.451" height="41.7031" fill="white" transform="translate(0.00718689 0.634766)"/>
</clipPath>
</defs>
</svg>
