<svg width="25" height="25" viewBox="0 0 25 25" fill="none" xmlns="http://www.w3.org/2000/svg">
<path fill-rule="evenodd" clip-rule="evenodd" d="M18.7279 16.3074C17.9761 15.5397 17.0374 15.5397 16.2904 16.3074C15.7205 16.8918 15.2943 17.08 14.734 17.6743C14.5808 17.8378 14.4515 17.8725 14.2647 17.7635C13.896 17.5555 13.5033 17.3871 13.149 17.1593C11.4968 16.0845 10.1129 14.7026 8.88692 13.1475C8.27874 12.3748 7.73759 11.5477 7.35927 10.6166C7.28265 10.4284 7.29701 10.3046 7.44546 10.151C8.01533 9.58148 8.20688 9.37343 8.76717 8.789C9.54775 7.97674 9.54774 7.0258 8.76238 6.20858C8.31702 5.74302 7.88641 5.09979 7.52337 4.59475C7.16038 4.08971 6.8756 3.48949 6.41109 3.01897C5.65924 2.2612 4.72066 2.26123 3.97361 3.02396C3.39895 3.60839 2.84823 4.20766 2.26399 4.78219C1.72286 5.31214 1.44988 5.96097 1.39241 6.71875C1.30142 7.952 1.59354 9.11588 2.00538 10.2501C2.8482 12.5977 4.13165 14.6828 5.68801 16.5946C7.7903 19.18 10.2996 21.2255 13.2352 22.7014C14.5569 23.3651 15.9264 23.8753 17.4158 23.9595C18.4406 24.0189 19.3313 23.7514 20.0448 22.9243C20.5333 22.3597 21.084 21.8446 21.6012 21.3048C22.3674 20.5024 22.3722 19.5316 21.6108 18.7392C20.7009 17.7932 19.6426 17.2484 18.7279 16.3074ZM18.3391 12.055L18.5511 12.0175C19.0136 11.9359 19.3077 11.4568 19.1782 10.9904C18.8092 9.6612 18.1214 8.45747 17.1652 7.46449C16.144 6.40835 14.8987 5.67615 13.5249 5.31598C13.069 5.19642 12.6134 5.51256 12.5481 5.99427L12.518 6.21633C12.4619 6.63068 12.7187 7.01734 13.1104 7.12225C14.1624 7.40406 15.1174 7.96667 15.9009 8.777C16.6362 9.53745 17.1639 10.4631 17.45 11.4837C17.5611 11.8802 17.9457 12.1245 18.3391 12.055ZM20.3689 4.24021C18.5268 2.33506 16.2436 1.06393 13.72 0.532491C13.2759 0.438982 12.8483 0.756234 12.7854 1.22046L12.7553 1.44204C12.6975 1.86907 12.9709 2.26785 13.3792 2.35488C15.5515 2.81801 17.5183 3.91646 19.1046 5.55272C20.5998 7.09903 21.6349 9.00997 22.1211 11.1154C22.2182 11.5354 22.611 11.8073 23.0226 11.7347L23.2327 11.6976C23.6841 11.6178 23.9732 11.1594 23.8669 10.6986C23.3024 8.25404 22.103 6.03817 20.3689 4.24021Z" fill="white"/>
</svg>
