<svg width="53" height="53" viewBox="0 0 53 53" fill="none" xmlns="http://www.w3.org/2000/svg">
<g clip-path="url(#clip0_1_2998)">
<path d="M26.9694 33.0412C26.9694 40.2017 26.7497 51.8807 26.48 51.8807C26.2087 51.8807 25.9907 40.2017 25.9907 33.0412C25.9907 25.8791 26.2087 25.9453 26.48 25.9453C26.7497 25.9453 26.9694 25.8791 26.9694 33.0412Z" fill="#546272"/>
<path d="M26.9694 18.8493C26.9694 11.6872 26.7497 0.00976562 26.48 0.00976562C26.2087 0.00976562 25.9907 11.6872 25.9907 18.8493C25.9907 26.0114 26.2087 25.9452 26.48 25.9452C26.7497 25.9452 26.9694 26.0114 26.9694 18.8493Z" fill="#546272"/>
<path d="M33.3791 25.4561C40.5412 25.4561 52.2186 25.6757 52.2186 25.9454C52.2186 26.2151 40.5412 26.4347 33.3791 26.4347C26.217 26.4347 26.2832 26.2151 26.2832 25.9454C26.2832 25.6757 26.2186 25.4561 33.3791 25.4561Z" fill="#546272"/>
<path d="M19.5797 25.4561C12.4176 25.4561 0.740234 25.6757 0.740234 25.9454C0.740234 26.2151 12.4176 26.4347 19.5797 26.4347C26.7418 26.4347 26.6756 26.2151 26.6756 25.9454C26.6756 25.6757 26.7418 25.4561 19.5797 25.4561Z" fill="#546272"/>
<path d="M21.7018 20.4757C16.6407 15.4113 8.22706 7.30932 8.0365 7.49988C7.84595 7.69206 15.9495 16.1041 21.0123 21.1685C26.0766 26.2328 26.1848 26.0293 26.3754 25.8388C26.5676 25.6482 26.7694 25.54 21.7051 20.4773L21.7018 20.4757Z" fill="#546272"/>
<path d="M31.9936 21.1685C37.0579 16.1041 45.1599 7.69206 44.9693 7.49988C44.7772 7.30932 36.3651 15.4129 31.3008 20.4757C26.2364 25.54 26.4399 25.6482 26.6305 25.8388C26.821 26.0309 26.9292 26.2328 31.9919 21.1685H31.9936Z" fill="#546272"/>
<path d="M31.6995 30.2778C36.7638 35.3405 44.8658 43.7542 44.6752 43.9448C44.4847 44.1353 36.071 36.0317 31.0083 30.969C25.9439 25.9046 26.1458 25.7964 26.3364 25.6059C26.5269 25.4153 26.6351 25.2135 31.6995 30.2778Z" fill="#546272"/>
<path d="M21.3043 30.2778C16.2399 35.3405 8.13794 43.7542 8.3285 43.9448C8.51906 44.1353 16.9311 36.0317 21.9955 30.969C27.0598 25.9046 26.8579 25.7964 26.6674 25.6059C26.4768 25.4153 26.3686 25.2135 21.3043 30.2778Z" fill="#546272"/>
</g>
<defs>
<clipPath id="clip0_1_2998">
<rect width="51.5155" height="52" fill="white" transform="translate(0.740234 0.00976562)"/>
</clipPath>
</defs>
</svg>
