<svg width="46" height="23" viewBox="0 0 46 23" fill="none" xmlns="http://www.w3.org/2000/svg">
<rect x="0.716858" y="0.91626" width="44.3281" height="21" rx="10.5" fill="#E7E1E0"/>
<path d="M18.2969 17.1763C18.3369 17.1763 18.3569 17.2163 18.3569 17.2963C18.3569 17.3763 18.3369 17.4163 18.2969 17.4163C17.9635 17.4163 17.7035 17.4096 17.5169 17.3963L16.3569 17.3763L15.2169 17.3963C15.0169 17.4096 14.7502 17.4163 14.4169 17.4163C14.3769 17.4163 14.3569 17.3763 14.3569 17.2963C14.3569 17.2163 14.3769 17.1763 14.4169 17.1763C14.8702 17.1763 15.1702 17.0829 15.3169 16.8963C15.4635 16.7096 15.5369 16.3429 15.5369 15.7963V12.7963C15.5369 12.0496 15.3969 11.5029 15.1169 11.1563C14.8502 10.7963 14.4235 10.6163 13.8369 10.6163C13.4902 10.6163 13.1369 10.6963 12.7769 10.8563C12.4169 11.0163 12.0902 11.2296 11.7969 11.4963V15.7963C11.7969 16.3429 11.8702 16.7096 12.0169 16.8963C12.1635 17.0829 12.4635 17.1763 12.9169 17.1763C12.9569 17.1763 12.9769 17.2163 12.9769 17.2963C12.9769 17.3763 12.9569 17.4163 12.9169 17.4163C12.5835 17.4163 12.3235 17.4096 12.1369 17.3963L10.9769 17.3763L9.81686 17.3963C9.63019 17.4096 9.37019 17.4163 9.03686 17.4163C8.99686 17.4163 8.97686 17.3763 8.97686 17.2963C8.97686 17.2163 8.99686 17.1763 9.03686 17.1763C9.49019 17.1763 9.79019 17.0829 9.93686 16.8963C10.0835 16.7096 10.1569 16.3429 10.1569 15.7963V11.9763C10.1569 11.5496 10.1035 11.2363 9.99686 11.0363C9.90352 10.8363 9.74352 10.7363 9.51686 10.7363C9.31686 10.7363 8.98352 10.8363 8.51686 11.0363H8.49686C8.44352 11.0363 8.40352 11.0029 8.37686 10.9363C8.35019 10.8696 8.35686 10.8296 8.39686 10.8163L11.0169 9.53626C11.0969 9.50959 11.1435 9.49626 11.1569 9.49626C11.2902 9.49626 11.4235 9.64959 11.5569 9.95626C11.7035 10.2496 11.7835 10.6363 11.7969 11.1163C12.7302 10.0096 13.7435 9.45626 14.8369 9.45626C15.5702 9.45626 16.1435 9.68293 16.5569 10.1363C16.9702 10.5763 17.1769 11.1763 17.1769 11.9363V15.7963C17.1769 16.3429 17.2502 16.7096 17.3969 16.8963C17.5435 17.0829 17.8435 17.1763 18.2969 17.1763ZM26.2656 16.1563C26.2923 16.1563 26.3189 16.1829 26.3456 16.2363C26.3856 16.2896 26.3923 16.3296 26.3656 16.3563C25.8723 16.8096 25.3789 17.1429 24.8856 17.3563C24.3923 17.5563 23.8589 17.6563 23.2856 17.6563C22.4723 17.6563 21.7656 17.4763 21.1656 17.1163C20.5789 16.7563 20.1256 16.2829 19.8056 15.6963C19.4989 15.1096 19.3456 14.4763 19.3456 13.7963C19.3456 13.0096 19.5389 12.2896 19.9256 11.6363C20.3123 10.9829 20.8389 10.4696 21.5056 10.0963C22.1856 9.70959 22.9389 9.51626 23.7656 9.51626C24.5656 9.51626 25.1856 9.70959 25.6256 10.0963C26.0656 10.4829 26.2856 11.0563 26.2856 11.8163C26.2856 12.2029 26.2056 12.3963 26.0456 12.3963L21.1656 12.4163C21.1523 12.5363 21.1456 12.7163 21.1456 12.9563C21.1456 14.1296 21.4123 15.0629 21.9456 15.7563C22.4923 16.4363 23.2656 16.7763 24.2656 16.7763C24.6389 16.7763 24.9523 16.7363 25.2056 16.6563C25.4589 16.5629 25.7989 16.4029 26.2256 16.1763L26.2656 16.1563ZM23.0456 9.91626C22.5523 9.91626 22.1456 10.1096 21.8256 10.4963C21.5189 10.8696 21.3123 11.3896 21.2056 12.0563L24.4056 11.9963C24.3789 10.6096 23.9256 9.91626 23.0456 9.91626ZM40.7464 9.69626C40.7864 9.69626 40.8064 9.73626 40.8064 9.81626C40.8064 9.89626 40.7864 9.93626 40.7464 9.93626C40.3864 9.93626 40.0664 10.0696 39.7864 10.3363C39.5197 10.6029 39.2597 11.0296 39.0064 11.6163L36.5264 17.3963C36.5264 17.4496 36.4597 17.4763 36.3264 17.4763C36.1797 17.4763 36.0997 17.4496 36.0864 17.3963L33.7264 12.5963L31.6664 17.3963C31.6664 17.4496 31.5997 17.4763 31.4664 17.4763C31.3464 17.4763 31.2664 17.4496 31.2264 17.3963L28.2664 11.3563C27.9731 10.7829 27.7264 10.4029 27.5264 10.2163C27.3264 10.0296 27.0864 9.93626 26.8064 9.93626C26.7664 9.93626 26.7464 9.89626 26.7464 9.81626C26.7464 9.73626 26.7664 9.69626 26.8064 9.69626C27.0464 9.69626 27.2397 9.70293 27.3864 9.71626L28.5464 9.73626L29.9064 9.71626C30.1064 9.70293 30.3797 9.69626 30.7264 9.69626C30.7664 9.69626 30.7864 9.73626 30.7864 9.81626C30.7864 9.89626 30.7664 9.93626 30.7264 9.93626C30.0197 9.93626 29.6664 10.0896 29.6664 10.3963C29.6664 10.4763 29.6997 10.5829 29.7664 10.7163L32.1264 15.2163L33.4464 12.0563L33.1064 11.3563C32.8131 10.7696 32.5864 10.3896 32.4264 10.2163C32.2664 10.0296 32.0597 9.93626 31.8064 9.93626C31.7797 9.93626 31.7664 9.89626 31.7664 9.81626C31.7664 9.73626 31.7797 9.69626 31.8064 9.69626C32.0331 9.69626 32.2197 9.70293 32.3664 9.71626L33.4064 9.73626L34.7864 9.71626C34.9864 9.70293 35.2531 9.69626 35.5864 9.69626C35.6131 9.69626 35.6264 9.73626 35.6264 9.81626C35.6264 9.89626 35.6131 9.93626 35.5864 9.93626C35.2797 9.93626 35.0331 9.97626 34.8464 10.0563C34.6731 10.1363 34.5864 10.2563 34.5864 10.4163C34.5864 10.4829 34.6197 10.5829 34.6864 10.7163L36.9864 15.2363L38.4864 11.5763C38.5931 11.2963 38.6464 11.0696 38.6464 10.8963C38.6464 10.5896 38.5264 10.3563 38.2864 10.1963C38.0464 10.0229 37.7064 9.93626 37.2664 9.93626C37.2264 9.93626 37.2064 9.89626 37.2064 9.81626C37.2064 9.73626 37.2264 9.69626 37.2664 9.69626C37.6264 9.69626 37.8931 9.70293 38.0664 9.71626L39.2664 9.73626L40.0664 9.71626C40.1997 9.70293 40.4264 9.69626 40.7464 9.69626Z" fill="#9A888A"/>
<rect x="0.716858" y="0.91626" width="44.3281" height="21" rx="10.5" stroke="#9A888A"/>
</svg>
