<svg width="71" height="108" viewBox="0 0 71 108" fill="none" xmlns="http://www.w3.org/2000/svg">
<path d="M85.2932 -107.577L85.8938 -86.0598C86.0016 -82.2023 87.5816 -78.5323 90.3096 -75.8029C93.0376 -73.0735 96.7068 -71.4916 100.564 -71.3819L122.082 -70.7887L100.564 -70.1881C96.7068 -70.0804 93.0368 -68.5004 90.3074 -65.7723C87.5779 -63.0443 85.9961 -59.3751 85.8863 -55.5177L85.2932 -34.0001L84.6926 -55.5177C84.5848 -59.3752 83.0048 -63.0452 80.2768 -65.7746C77.5488 -68.504 73.8796 -70.0859 70.0222 -70.1956L48.5046 -70.7887L70.0222 -71.3894C73.8797 -71.4971 77.5496 -73.0771 80.2791 -75.8052C83.0085 -78.5332 84.5904 -82.2024 84.7001 -86.0598L85.2932 -107.577ZM33.4888 41.8295L34.0219 61.1473C34.1166 64.614 35.536 67.9126 37.9882 70.3648C40.4404 72.817 43.739 74.2365 47.2057 74.3312L66.5235 74.8642L47.2057 75.3973C43.739 75.492 40.4404 76.9114 37.9882 79.3637C35.536 81.8159 34.1166 85.1145 34.0219 88.5811L33.4888 107.899L32.9557 88.5811C32.861 85.1145 31.4416 81.8159 28.9894 79.3637C26.5372 76.9114 23.2386 75.492 19.7719 75.3973L0.454102 74.8642L19.7719 74.3312C23.2386 74.2365 26.5372 72.817 28.9894 70.3648C31.4416 67.9126 32.861 64.614 32.9557 61.1473L33.4888 41.8295Z" fill="#546272"/>
</svg>
