<svg width="180" height="36" viewBox="0 0 180 36" fill="none" xmlns="http://www.w3.org/2000/svg">
<g clip-path="url(#clip0_1_2185)">
<path fill-rule="evenodd" clip-rule="evenodd" d="M107.714 6.15807C107.91 3.89145 108.344 2.74385 109.493 1.46244C109.862 1.05126 110.036 0.835283 110.244 0.797164C110.477 0.754333 110.75 0.936056 111.388 1.31772C113.126 2.35894 113.263 3.41933 113.263 15.7474C113.263 27.1779 112.934 31.1086 111.882 32.2152C111.623 32.4885 111.411 32.9539 111.411 33.249C111.411 33.5444 111.178 33.7861 110.894 33.7861C110.61 33.7861 110.282 34.0398 110.165 34.3499C110.048 34.66 109.633 34.9137 109.244 34.9137C108.916 34.9137 108.49 35.0948 108.212 35.3379H91.31C89.7099 34.424 87.6952 32.6095 87.6952 32.0713C87.6952 31.8247 87.445 31.4123 87.1394 31.1548C86.6758 30.7646 86.5836 29.2987 86.5836 22.3214C86.5836 15.3441 86.6758 13.8781 87.1394 13.4879C87.445 13.2305 87.6952 12.8181 87.6952 12.5715C87.6952 11.9911 89.8325 10.1027 91.4426 9.25993C92.4931 8.71037 93.906 8.58784 100.109 8.50815L107.519 8.41342L107.714 6.15807ZM75.9011 35.3379C77.7336 34.0884 79.1416 32.529 79.3693 31.4781C79.496 30.8917 79.7539 30.3152 79.9421 30.1971C80.133 30.0775 80.2841 26.5979 80.2841 22.3214C80.2841 18.0449 80.133 14.5652 79.9421 14.4458C79.7539 14.3277 79.496 13.7511 79.3693 13.1646C79.1314 12.0667 77.6051 10.4136 75.6523 9.13889C74.6585 8.49047 73.7744 8.40853 67.315 8.36606C63.3407 8.34012 59.5471 8.39313 58.8849 8.48372C58.2227 8.57468 57.6806 8.80735 57.6806 9.00094C57.6806 9.1949 57.4461 9.35316 57.1592 9.35316C56.334 9.35316 53.3567 12.9591 53.098 14.2717C52.7963 15.8011 52.7997 28.2691 53.1017 30.125C53.3627 31.7255 55.3684 34.2363 57.1953 35.3379H75.9011ZM39.0634 35.3379C39.2081 35.1317 39.3549 34.8736 39.5162 34.5529C40.2043 33.1847 40.2647 32.3521 40.2647 24.2618C40.2647 17.0552 40.3615 15.3779 40.7987 15.0099C41.0925 14.7626 42.5518 14.3897 44.041 14.1815C47.2418 13.7342 48.0463 13.1418 48.0463 11.2326C48.0463 9.11559 47.0703 8.44312 43.845 8.33862C42.3854 8.29125 40.7646 8.39237 40.2433 8.56302C37.7487 9.38022 36.5622 10.4079 35.2727 12.8681C34.3389 14.6503 34.3359 14.6852 34.3359 24.5967C34.3359 33.9394 34.3793 34.5819 35.0559 35.2682C35.0795 35.2921 35.1025 35.3153 35.1253 35.3379H39.0634ZM24.0841 35.3379C24.608 35.0129 25.0913 34.5741 25.7451 33.9741C28.0621 31.8472 28.2218 31.0954 28.2218 22.3214C28.2218 13.5473 28.0621 12.7956 25.7451 10.6687C23.3143 8.43786 23.2487 8.42319 15.2526 8.33411C11.1766 8.28825 7.59145 8.34501 7.28574 8.46003C4.38508 9.54974 2.8295 10.8871 1.6971 13.265C1.03678 14.6513 0.986389 15.7211 0.986389 28.3891V35.3379H24.0841ZM178.614 35.3379C179.221 34.6336 179.328 34.1295 179.265 32.3942L179.221 31.1905L169.68 31.0785C160.174 30.9673 160.134 30.9635 159.119 30.0535L158.1 29.1397V22.3082V15.4764L159.283 14.4822L160.466 13.4879H169.844H179.221L179.265 12.2663C179.329 10.474 179.219 9.98954 178.575 9.25918C178.051 8.66414 177.062 8.60137 168.233 8.60137C162.098 8.60137 158.47 8.73857 158.47 8.97012C158.47 9.17273 158.064 9.44224 157.567 9.56854C157.071 9.69521 155.904 10.6365 154.973 11.6607L153.282 13.5233V22.2515V30.9797L154.942 32.9039C155.854 33.9623 157.022 34.9352 157.536 35.066C157.789 35.1305 158.02 35.2296 158.189 35.3379H178.614ZM141.5 35.3379C143.496 34.2867 144.76 33.3529 144.76 32.9268C144.76 32.7084 145.052 32.2025 145.409 31.8025C145.987 31.153 146.057 30.1234 146.057 22.1609C146.057 14.1717 145.989 13.1779 145.409 12.5885C145.052 12.2265 144.76 11.7089 144.76 11.4375C144.76 11.1665 144.468 10.8375 144.111 10.7067C143.235 10.3854 141.825 9.53395 141.32 9.02086C140.8 8.49424 125.121 8.4277 125.121 8.95208C125.121 9.14491 124.746 9.41705 124.287 9.55726C123.282 9.86399 121.044 11.9517 121.044 12.5817C121.044 12.8291 120.795 13.1289 120.489 13.2481C120.018 13.4316 119.933 14.7679 119.933 22.0755C119.933 29.2716 120.024 30.7639 120.489 31.1548C120.795 31.4123 121.044 31.8243 121.044 32.0701C121.044 32.726 122.921 34.4394 124.578 35.2964C124.605 35.3105 124.633 35.3244 124.659 35.3379H141.5ZM107.705 21.7271C107.705 14.9768 107.627 13.9138 107.118 13.7161C106.797 13.5905 103.735 13.4879 100.313 13.4879C94.4614 13.4879 94.0312 13.5372 93.0256 14.3209C92.4375 14.7788 91.8338 15.3287 91.6841 15.5426C91.5344 15.756 91.4122 18.8068 91.4122 22.3214C91.4122 25.836 91.5344 28.8867 91.6841 29.1003C91.8338 29.3141 92.4375 29.864 93.0256 30.3219C94.0227 31.0989 94.4781 31.1548 99.8029 31.1548C105.094 31.1548 105.591 31.0947 106.608 30.3324L107.705 29.5099V21.7271ZM141.055 15.1329L139.958 14.3105C138.938 13.5451 138.468 13.4899 133.195 13.5177C127.094 13.5496 126.937 13.5748 125.624 14.7325C124.766 15.4892 124.751 15.6245 124.751 22.3755V29.2483L126.133 30.2016C127.464 31.1195 127.726 31.1548 133.189 31.1548C138.443 31.1548 138.942 31.0944 139.958 30.3324L141.055 29.5099V22.3214V15.1329ZM22.8489 22.2598C22.8489 16.3631 22.4876 14.907 20.9183 14.4807C19.2686 14.0323 8.99806 14.2277 8.02685 14.7258L7.10047 15.2009L6.99487 21.9564C6.93706 25.6718 6.98189 29.092 7.09491 29.5573C7.29834 30.396 7.3543 30.4027 13.8701 30.3768C17.4837 30.3621 20.7364 30.2317 21.098 30.0866C22.4968 29.5258 22.8489 27.9526 22.8489 22.2598ZM73.8303 29.4855C74.5892 28.4308 74.5892 16.2121 73.8303 15.1573C73.3497 14.4897 72.7746 14.4224 67.0677 14.3652C63.6371 14.3311 60.5361 14.386 60.1766 14.4878C58.7952 14.8787 58.4217 16.5466 58.4217 22.3214C58.4217 28.6932 58.7626 29.8464 60.7595 30.2264C61.4332 30.3546 64.5313 30.4046 67.6443 30.3373C72.7409 30.2272 73.3575 30.1426 73.8303 29.4855ZM12.1029 22.2365C12.1029 20.8588 12.6509 20.0649 13.7967 19.7837C14.6075 19.5849 16.219 19.8424 16.6555 20.2408C17.3469 20.8716 17.3581 23.0935 16.674 23.9502C15.1581 25.8495 12.1029 24.7038 12.1029 22.2365ZM98.256 21.0058C98.5612 21.0058 98.8116 20.7521 98.8116 20.4419C98.8116 19.6056 100.992 19.6886 101.288 20.5359C101.415 20.8979 101.768 21.4896 102.075 21.8516C102.403 22.2383 102.464 22.5094 102.224 22.5094C102 22.5094 101.597 22.9747 101.331 23.543C100.771 24.7316 98.8116 25.2628 98.8116 24.2257C98.8116 23.902 98.5612 23.6371 98.256 23.6371C97.8673 23.6371 97.7004 23.2401 97.7004 22.3214C97.7004 21.4027 97.8673 21.0058 98.256 21.0058Z" fill="#EBEBEB"/>
</g>
<defs>
<clipPath id="clip0_1_2185">
<rect width="178.492" height="34.5469" fill="white" transform="translate(0.986389 0.791016)"/>
</clipPath>
</defs>
</svg>
