<svg width="179" height="39" viewBox="0 0 179 39" fill="none" xmlns="http://www.w3.org/2000/svg">
<g clip-path="url(#clip0_1_2176)">
<path fill-rule="evenodd" clip-rule="evenodd" d="M24.2868 5.96279C24.6118 5.95433 24.937 5.95433 25.262 5.96279C28.675 6.15782 32.0881 7.32802 34.721 9.18082L39.4993 5.67024C34.8526 1.88053 28.9594 -0.0397558 22.9721 0.28486C16.9847 0.609476 11.3337 3.15565 7.12398 7.42553C3.11968 11.4351 0.637216 16.7144 0.103324 22.3558C-0.430568 27.9973 1.01746 33.6485 4.1985 38.3381H11.5122L10.4395 37.2654C7.10697 33.5911 5.36871 28.7445 5.60639 23.7898C5.84407 18.835 8.03827 14.177 11.7072 10.8386C15.0228 7.8156 19.5085 5.96279 24.2868 5.96279ZM36.9639 38.3381H44.3751C47.9216 33.0405 49.2518 26.5643 48.0807 20.2976L42.9124 24.1983V24.6859C42.9124 30.0492 40.6695 34.9251 37.0614 38.3381H36.9639ZM85.0393 38.3381H72.6547C69.8853 37.1897 67.5229 35.2385 65.8719 32.7359C64.2209 30.2333 63.3567 27.2938 63.3907 24.2958C63.3907 20.1026 64.951 16.2995 67.7789 13.6666C70.7044 11.0336 74.6051 9.47337 78.9933 9.47337C82.8939 9.47337 86.502 10.7411 89.135 13.0815L89.4275 13.2765L84.9418 16.6896C83.2749 15.4657 81.2561 14.8156 79.1883 14.8367C73.5324 14.8367 69.4367 18.9324 69.4367 24.4908C69.4367 30.0492 73.5324 34.1449 79.1883 34.1449C81.1386 34.1449 82.9914 33.6573 84.6492 32.7797L86.0144 31.9996L90.1101 34.9251C88.732 36.4244 87.0315 37.5914 85.1368 38.3381H85.0393ZM113.709 38.3381H95.2785V9.86343H120.34L113.807 14.7392H101.617V21.2728H109.223C116.147 21.2728 119.95 24.2958 119.95 29.9517C119.95 34.1449 117.805 37.0704 113.709 38.3381ZM147.84 38.3381H125.899V9.86343H147.84L141.306 14.7392H132.14V21.8579H145.597V26.7337H132.14V34.2424H147.84V38.3381ZM160.029 38.3381H153.691V9.86343H165.783C173.486 9.86343 178.167 13.8616 178.167 20.2976C178.167 26.7337 173.486 30.8294 165.783 30.8294H160.127V38.3381H160.029ZM101.519 34.2424H108.151C112.051 34.2424 114.002 32.8772 114.002 30.1468C114.002 27.5138 112.051 26.1486 108.151 26.1486H101.617V34.2424H101.519ZM165.588 25.9536H159.932V14.7392H165.49C169.488 14.7392 171.731 16.6896 171.731 20.3952C171.731 24.0033 169.488 25.9536 165.49 25.9536H165.588ZM43.3999 9.76592C44.5619 11.2715 45.5438 12.9079 46.3254 14.6417L24.3843 31.0244L15.1203 25.1734V18.1523L24.3843 24.0033L43.3999 9.76592Z" fill="#EBEBEB"/>
</g>
<defs>
<clipPath id="clip0_1_2176">
<rect width="178.454" height="38.0312" fill="white" transform="translate(0.00531006 0.306641)"/>
</clipPath>
</defs>
</svg>
