<svg width="801" height="801" viewBox="0 0 801 801" fill="none" xmlns="http://www.w3.org/2000/svg">
<g opacity="0.3">
<g clip-path="url(#clip0_1_1922)">
<path d="M913.041 0.337891V126.436L789.01 0.337891H913.041ZM280.482 469.589H423.118V326.953H280.482V469.589ZM937.847 469.589H1078.42V326.953H937.847V469.589ZM445.857 798.271V672.173L571.955 798.271H445.857ZM586.426 781.733V655.635H462.395L586.426 781.733ZM772.472 16.8754V142.974H898.57L772.472 16.8754ZM789.01 798.271L913.041 672.173V798.271H789.01ZM772.472 781.733L898.57 655.635H772.472V781.733ZM571.955 0.337891L445.857 126.436V0.337891H571.955ZM586.426 16.8754L462.395 142.974H586.426V16.8754ZM282.55 632.896V508.865L406.581 632.896H282.55ZM423.118 616.359V490.26H297.02L423.118 616.359ZM1078.42 165.713V289.744L952.317 165.713H1078.42ZM937.847 182.25V308.348H1061.88L937.847 182.25ZM952.317 632.896L1078.42 508.865V632.896H952.317ZM937.847 616.359L1061.88 490.26H937.847V616.359ZM406.581 165.713L282.55 289.744V165.713H406.581ZM423.118 182.25L297.02 308.348H423.118V182.25ZM460.327 632.896L586.426 508.865V632.896H460.327ZM772.472 289.744L898.57 165.713H772.472V289.744ZM772.472 632.896V508.865L898.57 632.896H772.472ZM586.426 289.744V165.713H460.327L586.426 289.744ZM571.955 490.26L445.857 616.359V490.26H571.955ZM913.041 182.25L789.01 308.348H913.041V182.25ZM913.041 490.26V616.359L789.01 490.26H913.041ZM445.857 182.25V308.348H571.955L445.857 182.25ZM749.733 655.635V798.271H607.097V655.635H749.733ZM609.165 0.337891V142.974H751.8V0.337891H609.165ZM423.118 781.733L292.886 655.635H423.118V781.733ZM1066.01 142.974L935.78 16.8754V142.974H1066.01ZM935.78 655.635H1066.01L935.78 781.733V655.635ZM292.886 142.974H423.118V16.8754L292.886 142.974Z" fill="white"/>
</g>
</g>
<defs>
<clipPath id="clip0_1_1922">
<rect width="800" height="797.933" fill="white" transform="translate(280.482 0.337891)"/>
</clipPath>
</defs>
</svg>
