<svg width="521" height="799" viewBox="0 0 521 799" fill="none" xmlns="http://www.w3.org/2000/svg">
<path d="M633.041 0.337891V126.436L509.01 0.337891H633.041ZM0.482483 469.589H143.118V326.953H0.482483V469.589ZM657.847 469.589H798.415V326.953H657.847V469.589ZM165.857 798.271V672.173L291.955 798.271H165.857ZM306.426 781.733V655.635H182.395L306.426 781.733ZM492.472 16.8754V142.974H618.57L492.472 16.8754ZM509.01 798.271L633.041 672.173V798.271H509.01ZM492.472 781.733L618.57 655.635H492.472V781.733ZM291.955 0.337891L165.857 126.436V0.337891H291.955ZM306.426 16.8754L182.395 142.974H306.426V16.8754ZM2.54967 632.896V508.865L126.581 632.896H2.54967ZM143.118 616.359V490.26H17.02L143.118 616.359ZM798.415 165.713V289.744L672.317 165.713H798.415ZM657.847 182.25V308.348H781.878L657.847 182.25ZM672.317 632.896L798.415 508.865V632.896H672.317ZM657.847 616.359L781.878 490.26H657.847V616.359ZM126.581 165.713L2.54967 289.744V165.713H126.581ZM143.118 182.25L17.02 308.348H143.118V182.25ZM180.327 632.896L306.426 508.865V632.896H180.327ZM492.472 289.744L618.57 165.713H492.472V289.744ZM492.472 632.896V508.865L618.57 632.896H492.472ZM306.426 289.744V165.713H180.327L306.426 289.744ZM291.955 490.26L165.857 616.359V490.26H291.955ZM633.041 182.25L509.01 308.348H633.041V182.25ZM633.041 490.26V616.359L509.01 490.26H633.041ZM165.857 182.25V308.348H291.955L165.857 182.25ZM469.733 655.635V798.271H327.097V655.635H469.733ZM329.165 0.337891V142.974H471.8V0.337891H329.165ZM143.118 781.733L12.8856 655.635H143.118V781.733ZM786.012 142.974L655.78 16.8754V142.974H786.012ZM655.78 655.635H786.012L655.78 781.733V655.635ZM12.8856 142.974H143.118V16.8754L12.8856 142.974Z" fill="white"/>
</svg>
