<svg width="179" height="45" viewBox="0 0 179 45" fill="none" xmlns="http://www.w3.org/2000/svg">
<g clip-path="url(#clip0_1_2158)">
<path fill-rule="evenodd" clip-rule="evenodd" d="M21.735 44.3379H29.4933V0.697266H18.2437C6.99415 0.697266 1.07842 6.51602 1.07842 15.2441C1.07842 22.1297 4.27873 26.2028 10.0975 30.4699L0.88446 44.3379H9.22467L19.6014 28.6273L15.7223 26.0088C10.9703 22.7115 8.64279 20.1901 8.64279 14.7592C8.64279 9.91029 12.0371 6.80695 18.3407 6.80695H21.735V44.3379ZM178.453 44.3379H178.55V38.0342C176.611 39.392 174.38 40.1678 171.18 40.1678C165.749 40.1678 163.422 35.9007 163.422 29.2091C163.422 22.1297 166.331 18.5414 171.18 18.5414C174.089 18.5414 176.999 19.5112 178.55 20.481V13.9834C176.999 13.0136 174.186 12.4317 170.404 12.4317C160.706 12.4317 155.663 19.5112 155.663 29.4031C155.663 36.6765 157.797 41.7195 162.355 44.3379H178.453ZM155.178 44.3379L143.929 28.3363L154.596 13.1106H146.935L136.267 28.3363V13.1106H128.703V44.3379H136.267V29.888L146.45 44.3379H155.081H155.178ZM121.721 44.3379L123.272 43.3681V37.1614C120.26 39.0929 116.764 40.1349 113.186 40.1678C107.659 40.1678 105.525 37.5493 105.234 32.1185H123.563V28.0454C123.563 16.6988 118.714 12.5287 110.956 12.5287C101.84 12.5287 97.3787 19.6082 97.3787 29.5001C97.3787 36.8705 99.8032 41.8164 104.167 44.3379H121.721ZM95.5361 44.3379V39.4889H92.1419V13.2076H69.9336V16.02C70.3362 23.9739 69.2509 31.9332 66.7333 39.4889H64.4058V44.3379H95.4392H95.5361ZM61.3025 44.3379V13.1106H53.7381V25.9118H43.4583V13.1106H35.8939V44.3379H43.4583V32.0215H53.6411V44.3379H61.1085H61.3025ZM115.805 25.8149C115.805 21.7417 114.641 18.5414 110.956 18.5414C107.271 18.5414 105.428 21.2568 105.234 26.3967H115.902V25.9118L115.805 25.8149ZM73.7158 39.4889H84.4805V19.1233H76.4312V20.0931C76.4312 25.7179 75.8494 34.543 73.7158 39.4889Z" fill="#EBEBEB"/>
</g>
<defs>
<clipPath id="clip0_1_2158">
<rect width="178.442" height="43.6406" fill="white" transform="translate(0.0116501 0.697266)"/>
</clipPath>
</defs>
</svg>
